<?xml version="1.0" encoding="iso-8859-1"?>
<!-- Uploaded to: SVG Repo, www.svgrepo.com, Generator: SVG Repo Mixer Tools -->
<svg version="1.1" id="Layer_1" xmlns="http://www.w3.org/2000/svg" xmlns:xlink="http://www.w3.org/1999/xlink" 
	 viewBox="0 0 512 512" xml:space="preserve">
<circle style="fill:#71E2EF;" cx="256" cy="256" r="256"/>
<path style="fill:#38C6D9;" d="M268.698,511.684C404.183,505.066,512,393.126,512,256c0-1.891-0.031-3.775-0.072-5.658
	l-142.15-142.152l-99.431,112.162l-70.677-70.677l-59.639,45.349l80.98,80.98l-58.689,66.201l1.219,1.219l-37.135,22.699
	l42.722,42.722l-1.826,1.445L268.698,511.684z"/>
<path style="fill:#273B7A;" d="M134.451,287.356c-5.704,0-10.33,4.625-10.33,10.33v61.964c0,5.704,4.625,10.33,10.33,10.33h120.975
	v-82.623H134.451z"/>
<path style="fill:#121149;" d="M377.549,287.356H255.426v82.623h122.123c5.704,0,10.33-4.625,10.33-10.33v-61.964
	C387.879,291.981,383.254,287.356,377.549,287.356z"/>
<path style="fill:#386895;" d="M177.416,415.025h157.168c7.277,0,13.174-5.899,13.174-13.174V192.248
	c0-7.277-5.899-13.174-13.174-13.174H177.416c-7.277,0-13.174,5.899-13.174,13.174v209.603
	C164.242,409.126,170.139,415.025,177.416,415.025z"/>
<g>
	<path style="fill:#273B7A;" d="M334.584,179.072h-79.158v235.951h79.158c7.277,0,13.174-5.899,13.174-13.174V192.248
		C347.758,184.972,341.861,179.072,334.584,179.072z"/>
	<path style="fill:#273B7A;" d="M148.828,199.889h214.344c5.747,0,10.407-4.66,10.407-10.407v-73.249
		c0-5.748-4.66-10.407-10.407-10.407H148.828c-5.748,0-10.407,4.66-10.407,10.407v73.249
		C138.421,195.229,143.081,199.889,148.828,199.889z"/>
</g>
<path style="fill:#121149;" d="M363.172,105.825H255.426v94.063h107.746c5.747,0,10.407-4.66,10.407-10.407v-73.249
	C373.579,110.485,368.919,105.825,363.172,105.825z"/>
<path style="fill:#FFC61B;" d="M184.367,388.808h143.265c3.875,0,7.018-3.143,7.018-7.018v-38.398c0-3.875-3.143-7.018-7.018-7.018
	H184.367c-3.875,0-7.018,3.143-7.018,7.018v38.398C177.349,385.667,180.491,388.808,184.367,388.808z"/>
<path style="fill:#EAA22F;" d="M327.632,336.374h-72.208v52.434h72.208c3.875,0,7.018-3.143,7.018-7.018v-38.398
	C334.65,339.516,331.509,336.374,327.632,336.374z"/>
<rect x="308.441" y="100.418" style="fill:#A30F44;" width="26.217" height="104.867"/>
<rect x="177.355" y="100.418" style="fill:#FF314F;" width="26.217" height="104.867"/>
<rect x="181.924" y="221.315" style="fill:#273B7A;" width="148.165" height="10.195"/>
<rect x="255.431" y="221.315" style="fill:#121149;" width="74.662" height="10.195"/>
</svg>