<svg xmlns="http://www.w3.org/2000/svg" viewBox="0 0 48 48"><defs><style>.cls-1{fill:#edb996;}.cls-2{fill:#f6ccaf;}.cls-3{fill:#a87e6b;}.cls-4{fill:#be927c;}.cls-5{fill:#dad7e5;}.cls-6{fill:#edebf2;}.cls-7{fill:#fc6;}.cls-8{fill:#ffde76;}</style></defs><title>return product</title><g id="return_product" data-name="return product"><path class="cls-1" d="M41,3V25.84C30.33,21.12,21.48,35.86,31,43H1V3Z"/><path class="cls-2" d="M41,3V25.84a10,10,0,0,0-9.51.81,10,10,0,0,0-5.23,14.2A25,25,0,0,1,4,16V3Z"/><rect class="cls-3" x="14" y="3" width="14" height="10"/><path class="cls-4" d="M28,3v8H24a8,8,0,0,1-8-8Z"/><rect class="cls-5" x="5" y="31" width="12" height="8"/><path class="cls-6" d="M17,31v7H13a7,7,0,0,1-7-7Z"/><path class="cls-7" d="M47,35a10,10,0,0,1-16,8c-7.73-5.82-3.48-18,6-18A10,10,0,0,1,47,35Z"/><path class="cls-8" d="M47,35a10,10,0,0,1-2,6A10,10,0,0,1,31,27a9.89,9.89,0,0,1,6-2A10,10,0,0,1,47,35Z"/><path d="M17,30H5a1,1,0,0,0-1,1v8a1,1,0,0,0,1,1H17a1,1,0,0,0,1-1V31A1,1,0,0,0,17,30Zm-1,8H6V32H16Z"/><path d="M9,36h4a1,1,0,0,0,0-2H9A1,1,0,0,0,9,36Z"/><path d="M42,25.21V3a1,1,0,0,0-1-1H1A1,1,0,0,0,0,3V43a1,1,0,0,0,1,1H30.7A10.86,10.86,0,0,0,37,46C48.43,46,52.32,30.51,42,25.21ZM27,4v8H15V4ZM2,4H13v9a1,1,0,0,0,1,1H28a1,1,0,0,0,1-1V4H40V24.43c-10.41-3-18.27,9.36-11.48,17.57H2ZM37,44a9,9,0,1,1,9-9A9,9,0,0,1,37,44Z"/><path d="M39,31c-5.29,0-4.71.13-4.29-.29a1,1,0,0,0-1.42-1.42c-2,2-2.24,2.12-2.28,2.65a1,1,0,0,0,.28.77C33.47,34.89,33.46,35,34,35a1,1,0,0,0,.71-1.71C34.31,32.9,33.49,33,39,33a2,2,0,0,1,0,4H33a1,1,0,0,0,0,2h6a4,4,0,0,0,0-8Z"/></g></svg>