<?xml version="1.0" encoding="iso-8859-1"?>
<!-- Uploaded to: SVG Repo, www.svgrepo.com, Generator: SVG Repo Mixer Tools -->
<svg height="800px" width="800px" version="1.1" id="Layer_1" xmlns="http://www.w3.org/2000/svg" xmlns:xlink="http://www.w3.org/1999/xlink" 
	 viewBox="0 0 512 512" xml:space="preserve">
<circle style="fill:#E1EFFA;" cx="256" cy="256" r="256"/>
<path style="fill:#BCD4E8;" d="M328.261,104.809c0-0.036-0.036-0.036-0.036-0.036l-7.606-7.608h-0.036
	c-0.148-0.146-0.253-0.218-0.294-0.253l-3.218,4.352c0.148,0.148,16.532,12.58,16.532,31.631c0,8.558-4.096,13.059-8.412,17.81
	c-4.314,4.754-9.216,10.132-9.216,19.604c0,1.313,0.069,2.522,0.261,3.694l-29.074-5.632L132.649,322.88v0.038h0.036l46.044,46.083
	h0.036l46.08,46.08l90.02,90.035c103.311-24.32,182.428-111.168,195.246-218.447L328.261,104.809z"/>
<path style="fill:#0575A5;" d="M287.168,168.387L132.652,322.903l92.178,92.18l154.519-154.509l-14.945-77.24L287.168,168.387z
	 M343.27,218.365c-3.843,3.84-10.066,3.84-13.908,0c-3.832-3.832-3.832-10.068,0-13.903c3.843-3.84,10.066-3.835,13.908,0
	C347.105,208.299,347.105,214.536,343.27,218.365z"/>
<path style="fill:#1E97C3;" d="M364.416,183.309l-21.146,21.153c-3.85-3.84-10.058-3.84-13.908,0
	c-3.848,3.853-3.848,10.051,0,13.903L178.737,368.998l-46.075-46.08l154.514-154.519L364.416,183.309z"/>
<g>
	<path style="fill:#E1EFFA;" d="M212.429,359.45l-0.709-5.765c4.695,0.366,10.655-0.957,15.404-5.709
		c6.006-5.998,4.698-11.146,2.068-13.78c-8.684-8.681-23.785,16.12-35.807,4.096c-5.555-5.555-4.442-14.336,2.227-21.012
		c5.1-5.092,10.849-7.322,16.66-7.168l0.558,5.601c-5.35-0.299-10.099,2.03-13.786,5.714c-3.986,3.986-4.746,9.091-1.567,12.273
		c7.578,7.57,23.176-16.722,35.756-4.137c4.846,4.841,6.566,13.217-2.524,22.321C224.904,357.686,218.337,359.805,212.429,359.45z"
		/>
	<path style="fill:#E1EFFA;" d="M272.307,309.053l-10.506-4.541l-16.76,16.76l4.547,10.506l-4.795,4.795l-20.101-47.268l5.204-5.204
		l47.217,20.155L272.307,309.053z M231.557,291.026l11.064,25.298l14.29-14.292L231.557,291.026z"/>
	<path style="fill:#E1EFFA;" d="M280.945,300.424l-33.684-33.679l4.193-4.198l29.942,29.955l15.647-15.66l3.738,3.74
		L280.945,300.424z"/>
	<path style="fill:#E1EFFA;" d="M306.391,274.972l-33.682-33.679l22.067-22.07l3.735,3.735l-17.871,17.874l10.857,10.862
		l17.516-17.516l3.745,3.735l-17.518,17.521l11.602,11.62l17.882-17.884l3.727,3.735L306.391,274.972z"/>
</g>
<path style="fill:#34495E;" d="M326.244,201.347c-5.563,5.563-5.555,14.579,0.008,20.14c5.555,5.558,14.572,5.565,20.127,0
	c5.563-5.558,5.563-14.577,0-20.132C340.826,195.789,331.807,195.789,326.244,201.347z M343.27,218.365
	c-3.843,3.84-10.066,3.84-13.908,0c-3.832-3.832-3.832-10.068,0-13.903c3.843-3.84,10.066-3.835,13.908,0
	C347.105,208.299,347.105,214.536,343.27,218.365z"/>
<path style="fill:#5D6D7E;" d="M321.408,170.317c0-7.38,3.622-11.348,7.816-15.964c4.6-5.051,9.825-10.783,9.825-21.463
	c0-21.752-17.974-35.412-18.737-35.981l-3.251,4.355c0.161,0.133,16.533,12.567,16.533,31.626c0,8.561-4.076,13.056-8.399,17.797
	c-4.321,4.754-9.229,10.156-9.229,19.63c0,9.825,4.559,15.342,8.97,20.677c4.452,5.384,8.66,10.458,8.66,20.426
	c0,1.5,1.221,2.716,2.711,2.716c1.51,0,2.739-1.216,2.739-2.716c0-11.924-5.268-18.291-9.91-23.91
	C324.987,182.52,321.408,178.189,321.408,170.317z"/>
</svg>