<?xml version="1.0" encoding="UTF-8"?>
<!DOCTYPE svg PUBLIC "-//W3C//DTD SVG 1.1//EN" "http://www.w3.org/Graphics/SVG/1.1/DTD/svg11.dtd">
<!-- Creator: CorelDRAW -->
<svg xmlns="http://www.w3.org/2000/svg" xml:space="preserve" width="11.8056in" height="11.8056in" version="1.1" style="shape-rendering:geometricPrecision; text-rendering:geometricPrecision; image-rendering:optimizeQuality; fill-rule:evenodd; clip-rule:evenodd"
viewBox="0 0 11806 11806"
 xmlns:xlink="http://www.w3.org/1999/xlink">
 <defs>
  <style type="text/css">
   <![CDATA[
    .fil0 {fill:#FF4800}
    .fil1 {fill:white}
   ]]>
  </style>
 </defs>
 <g id="Layer_x0020_1">
  <metadata id="CorelCorpID_0Corel-Layer"/>
  <circle class="fil0" cx="5903" cy="5903" r="5903"/>
  <path class="fil1" d="M7760 9458l-4930 0c-202,0 -364,-162 -364,-364l0 -6382c0,-203 162,-365 364,-365l3565 0c-12,33 -19,68 -19,104l0 1053c0,326 259,592 586,592l655 0c-432,121 -785,430 -968,832l-249 0c-57,0 -104,46 -104,104 0,58 47,104 104,104l173 0c-38,133 -58,272 -58,417 0,82 6,164 19,243l-128 0c-58,0 -104,46 -104,104 0,58 46,104 104,104l177 0c94,298 277,556 519,742 -55,-41 -124,-65 -198,-65l-3310 0c-185,0 -335,156 -335,341l0 1227c0,185 150,336 335,336l3316 0c185,0 335,-151 329,-336l0 -1227c0,-110 -50,-207 -128,-269 253,192 568,306 909,306 37,0 74,-2 110,-4l0 2039c-11,202 -173,364 -370,364zm-1956 -4322l-2441 0c-58,0 -104,-46 -104,-104 0,-58 46,-104 104,-104l2441 0c58,0 105,46 105,104 0,58 -47,104 -105,104zm0 -879l-2441 0c-58,0 -104,-47 -104,-105 0,-57 46,-104 104,-104l2441 0c58,0 105,47 105,104 0,58 -47,105 -105,105zm0 -874l-2441 0c-58,0 -104,-46 -104,-104 0,-58 46,-99 104,-99l2441 0c58,0 105,47 105,99 0,52 -47,104 -105,104zm0 2621l-2441 0c-58,0 -104,-46 -104,-104 0,-58 46,-104 104,-104l2441 0c58,0 105,46 105,104 0,58 -47,104 -105,104zm-2210 885c-69,0 -133,64 -133,139l0 1227c0,75 58,133 133,133l3310 0c75,0 133,-58 133,-133l0 -1233c0,-75 -58,-138 -133,-138l-3310 0 0 5zm642 1395c-57,0 -104,-47 -104,-104l0 -990 -330 0c-57,0 -104,-46 -104,-104 0,-58 47,-104 104,-104l868 0c58,0 104,46 104,104 0,58 -46,104 -104,104l-329 0 0 995c0,58 -47,99 -105,99zm2465 0c-29,0 -63,-12 -81,-41l-324 -437 -324 437c-17,29 -52,41 -81,41 -23,0 -40,-6 -58,-18 -46,-34 -52,-98 -23,-138l362 -489 -362 -489c-35,-47 -23,-110 23,-139 47,-35 110,-23 139,23l324 437 324 -437c35,-46 99,-52 139,-23 46,35 52,98 23,139l-362 489 362 489c35,46 23,109 -23,138 -17,12 -40,18 -58,18zm-1376 -550l-459 0c-22,59 -45,122 -68,185 -35,93 -70,191 -110,295 -23,47 -58,70 -99,70 -11,0 -23,0 -34,-6 -52,-17 -81,-81 -58,-133 40,-104 75,-203 110,-295 31,-85 60,-161 87,-231 2,-19 9,-36 19,-50 160,-415 240,-565 380,-570 0,0 0,0 0,0 156,0 237,197 451,729 46,122 104,255 168,411 23,52 -6,110 -58,133 -52,23 -110,-6 -133,-58 -64,-150 -116,-289 -168,-410l-28 -70zm-378 -208l294 0c-60,-144 -112,-260 -148,-307 -36,46 -87,158 -146,307z"/>
  <path class="fil1" d="M8020 3909l-1058 0c-220,0 -400,-179 -400,-405l0 -1053c0,-40 24,-75 64,-92 41,-18 81,-6 110,23l1354 1354c29,29 40,75 23,110 -17,40 -52,63 -93,63z"/>
  <path class="fil1" d="M8020 6872c-729,0 -1319,-590 -1319,-1319 0,-729 590,-1325 1319,-1325 730,0 1320,590 1320,1319 0,729 -590,1325 -1320,1325zm-329 -1562c-168,0 -307,-139 -307,-313 0,-173 133,-306 307,-306 173,0 312,138 312,306 0,174 -139,313 -312,313zm0 -417c-64,0 -104,46 -104,104 0,64 46,110 104,110 58,0 110,-52 110,-110 0,-58 -47,-104 -110,-104zm659 1516c-173,0 -312,-139 -312,-312 0,-168 139,-307 312,-307 174,0 307,139 307,307 0,167 -139,312 -307,312zm0 -422c-63,0 -110,46 -110,104 0,58 52,110 110,110 58,0 104,-52 104,-110 0,-58 -46,-104 -104,-104zm-706 306c-17,0 -34,-5 -52,-11 -46,-29 -63,-93 -34,-139l746 -1290c29,-47 93,-64 139,-35 46,29 64,92 35,139l-747 1290c-17,29 -52,46 -87,46z"/>
 </g>
</svg>
