<svg id="artwork" xmlns="http://www.w3.org/2000/svg" viewBox="0 0 512 512"><title>Return_condition</title><g id="Return_condition"><path d="M386.2,45.62V478.28H88.59A35.69,35.69,0,0,1,52.9,442.59v-397Z" style="fill:#def1f9"/><polygon points="386.2 114.27 386.2 136.09 161.32 136.09 178.81 153.58 170.32 162.06 133.27 125.02 170.22 88.06 178.71 96.56 161 114.27 386.2 114.27" style="fill:#9dc0d1"/><path d="M85.72,478.28a36.56,36.56,0,0,0,36.55-36.56h318a36.55,36.55,0,0,1-36.55,36.56h-318Z" style="fill:#9dc0d1"/><rect x="91.95" y="225.67" width="40.32" height="40.32" style="fill:#3dc9c9"/><rect x="91.95" y="295.72" width="40.32" height="40.32" style="fill:#3dc9c9"/><rect x="91.95" y="365.7" width="40.32" height="40.32" style="fill:#3dc9c9"/><rect x="175" y="410.39" width="76.67" height="12" style="fill:#83afc6"/><rect x="175" y="389.45" width="76.67" height="12" style="fill:#83afc6"/><rect x="175.04" y="368.08" width="41.31" height="12" style="fill:#83afc6"/><rect x="264.33" y="410.39" width="44.16" height="12" style="fill:#83afc6"/><rect x="264.33" y="389.45" width="44.16" height="12" style="fill:#83afc6"/><path d="M111.66,181.25c-5.36,0-9.18,3.92-9.18,9.39s3.71,9.39,9.18,9.39,9.29-4,9.29-9.39S117.23,181.25,111.66,181.25Z" style="fill:#f47a53"/><path d="M113.11,128.21a35.32,35.32,0,0,0-17.23,4.24l3.5,11.24a19.48,19.48,0,0,1,10.22-3.09c5.16.2,7.53,2.58,7.53,6.19s-2.68,6.81-6,10.73c-4.65,5.57-6.4,10.94-6.09,16.2l.1,2.68h13.72v-1.86c-.1-4.64,1.45-8.66,5.27-12.89s8.77-9.5,8.77-17.34C132.92,135.75,126.73,128.21,113.11,128.21Z" style="fill:#f47a53"/><polygon points="198.26 202.97 198.26 297.36 235.47 318.85 241.22 322.16 280.01 344.56 361.76 297.37 361.76 202.97 280.01 155.77 198.26 202.97" style="fill:#f47a53"/><polygon points="361.75 202.74 280.01 249.94 198.27 202.74 280.01 155.54 361.75 202.74" style="fill:#ffaf9f"/><polygon points="332.92 219.46 332.92 313.85 308.29 328.07 308.29 233.03 227.1 186.16 251.17 172.26 332.92 219.46" style="fill:#def1f9"/><path d="M361.12,262.7h53.47c21.38,0,40.73-9.5,54.74-24.85L478,226.54a90.21,90.21,0,0,0,14-48.69h0C492,131,457.35,93,414.59,93H154l-12.26,10.75L154,114.83H410.33c33,0,59.67,28.22,59.67,63h0c0,34.81-26.71,63-59.67,63H361Z" style="fill:#3dc9c9"/><polygon points="116.95 232.53 116.95 220.53 86.74 220.53 86.74 271.27 137.48 271.27 137.48 236.94 148.17 226.25 139.69 217.76 115.88 241.56 109.05 234.74 100.57 243.22 115.88 258.54 125.48 248.94 125.48 259.27 98.74 259.27 98.74 232.53 116.95 232.53"/><polygon points="86.74 341.25 137.48 341.25 137.48 306.92 148.17 296.22 139.69 287.74 115.88 311.54 109.05 304.71 100.57 313.2 115.88 328.51 125.48 318.92 125.48 329.25 98.74 329.25 98.74 302.51 116.95 302.51 116.95 290.51 86.74 290.51 86.74 341.25"/><polygon points="86.74 411.23 137.48 411.23 137.48 376.89 148.17 366.2 139.69 357.71 115.88 381.52 109.05 374.69 100.57 383.18 115.88 398.49 125.48 388.89 125.48 399.23 98.74 399.23 98.74 372.49 116.95 372.49 116.95 360.49 86.74 360.49 86.74 411.23"/><path d="M414.59,87H392.2V39.62H46.9V348.75h12V51.62H380.2V87H167l11.71-11.71-8.49-8.49-36.95,37,37,37.05,8.49-8.48-11.49-11.49H228.5v-12H155.32l-5.08-5.08L155,99H380.2v9.83H360.5v12h19.7V219.5h12V120.83h18.13c29.59,0,53.67,25.58,53.67,57s-24.08,57-53.67,57H367.86V199.33L280,148.61l-87.85,50.72V300.77L280,351.49l87.85-50.72V268.7H380.2v167H116.27v6a30.58,30.58,0,0,1-28.64,30.49A30.68,30.68,0,0,1,58.9,441.73v-76h-12v76A42.76,42.76,0,0,0,85.72,484.1v.18c.69,0,1.39,0,2.07,0,.27,0,.53,0,.8,0s.57,0,.87,0H403.73a42.6,42.6,0,0,0,42.55-42.56v-6H392.2v-167h22.39c22.39,0,43.4-9.52,59.18-26.81l-8.87-8.08c-13.47,14.76-31.34,22.89-50.31,22.89H367.86v-9.83h42.47c36.21,0,65.67-31,65.67-69s-29.46-69-65.67-69H392.2V99h22.39C454,99,486,134.37,486,177.85A84,84,0,0,1,473,223.3l10.11,6.47A96,96,0,0,0,498,177.85C498,127.76,460.59,87,414.59,87ZM403.73,472.28H115.3a42.53,42.53,0,0,0,12.55-24.56H433.69A30.59,30.59,0,0,1,403.73,472.28ZM349.86,202.8,333,212.51l-69.85-40.33L280,162.47ZM280,243.12,210.16,202.8l17-9.84,69.85,40.32Zm6,10.4L302.5,244v80.65L286,334.17Zm28.49-16.45L327,229.83v80.65l-12.54,7.24Zm-5.45-10.71L239.2,186l12-6.92L321,219.44ZM204.16,213.19,274,253.52v80.65l-69.85-40.33ZM339,303.56V222.9l16.82-9.71v80.65Z"/><rect x="241.5" y="108.83" width="106.25" height="12"/><rect x="175" y="399.23" width="76.67" height="12"/><rect x="175" y="378.28" width="76.67" height="12"/><rect x="175.04" y="356.92" width="41.31" height="12"/><rect x="264.33" y="399.23" width="44.16" height="12"/><rect x="264.33" y="378.28" width="44.16" height="12"/></g></svg>